<svg width="195" height="79" viewBox="0 0 195 79" fill="none" xmlns="http://www.w3.org/2000/svg">
<path d="M17.0345 34.49V23.85H54.1345V34.49H17.0345ZM46.6445 6H58.4745V55H46.6445V6ZM13.7445 6H25.5745V55H13.7445V6ZM76.4738 45.55L77.3138 36.52H101.604L102.374 45.55H76.4738ZM89.2838 23.99L82.4238 39.81L82.9838 42.4L76.8938 55H63.5237L89.2838 2.92L115.114 55H101.674L95.7938 42.89L96.2138 39.88L89.2838 23.99ZM120.248 6H132.498V55H120.248V6ZM149.158 6H163.018L143.138 28.96L164.068 55H149.718L129.068 29.31L149.158 6ZM169.194 6H181.234V55H169.194V6Z" fill="black"/>
<path d="M40.3352 71.928C40.5032 72.224 40.6912 72.48 40.8992 72.696C41.1072 72.904 41.3352 73.064 41.5832 73.176C41.8312 73.288 42.0872 73.344 42.3512 73.344C42.6072 73.344 42.8192 73.288 42.9872 73.176C43.1552 73.056 43.2392 72.884 43.2392 72.66C43.2392 72.5 43.1912 72.368 43.0952 72.264C42.9992 72.152 42.8312 72.04 42.5912 71.928C42.3592 71.816 42.0312 71.68 41.6072 71.52C41.3992 71.44 41.1672 71.336 40.9112 71.208C40.6552 71.072 40.4072 70.9 40.1672 70.692C39.9352 70.484 39.7392 70.228 39.5792 69.924C39.4272 69.62 39.3512 69.26 39.3512 68.844C39.3512 68.316 39.4912 67.872 39.7712 67.512C40.0512 67.144 40.4232 66.864 40.8872 66.672C41.3512 66.48 41.8672 66.384 42.4352 66.384C43.0272 66.384 43.5392 66.48 43.9712 66.672C44.4032 66.856 44.7592 67.092 45.0392 67.38C45.3192 67.66 45.5352 67.944 45.6872 68.232L43.9352 69.204C43.8152 69.004 43.6752 68.84 43.5152 68.712C43.3632 68.576 43.1992 68.472 43.0232 68.4C42.8472 68.328 42.6672 68.292 42.4832 68.292C42.2512 68.292 42.0672 68.34 41.9312 68.436C41.7952 68.532 41.7272 68.66 41.7272 68.82C41.7272 69.004 41.8032 69.16 41.9552 69.288C42.1152 69.408 42.3312 69.524 42.6032 69.636C42.8832 69.74 43.2032 69.856 43.5632 69.984C43.8752 70.096 44.1592 70.232 44.4152 70.392C44.6792 70.544 44.9072 70.728 45.0992 70.944C45.2912 71.152 45.4392 71.392 45.5432 71.664C45.6472 71.936 45.6992 72.24 45.6992 72.576C45.6992 73.024 45.6072 73.42 45.4232 73.764C45.2472 74.108 45.0032 74.396 44.6912 74.628C44.3872 74.852 44.0392 75.02 43.6472 75.132C43.2552 75.252 42.8552 75.312 42.4472 75.312C41.8712 75.312 41.3352 75.212 40.8392 75.012C40.3512 74.82 39.9272 74.556 39.5672 74.22C39.2072 73.876 38.9352 73.496 38.7512 73.08L40.3352 71.928ZM48.9924 70.8C48.9924 71.248 49.0804 71.648 49.2564 72C49.4324 72.344 49.6804 72.616 50.0004 72.816C50.3204 73.008 50.6964 73.104 51.1284 73.104C51.5684 73.104 51.9444 73.008 52.2564 72.816C52.5764 72.616 52.8244 72.344 53.0004 72C53.1764 71.648 53.2644 71.248 53.2644 70.8C53.2644 70.344 53.1804 69.944 53.0124 69.6C52.8444 69.256 52.6004 68.988 52.2804 68.796C51.9684 68.596 51.5844 68.496 51.1284 68.496C50.6964 68.496 50.3204 68.596 50.0004 68.796C49.6804 68.988 49.4324 69.256 49.2564 69.6C49.0804 69.944 48.9924 70.344 48.9924 70.8ZM46.5324 70.8C46.5324 70.136 46.6484 69.536 46.8804 69C47.1204 68.456 47.4484 67.992 47.8644 67.608C48.2804 67.216 48.7644 66.916 49.3164 66.708C49.8764 66.492 50.4804 66.384 51.1284 66.384C51.7924 66.384 52.4004 66.492 52.9524 66.708C53.5124 66.916 54.0004 67.216 54.4164 67.608C54.8324 67.992 55.1524 68.456 55.3764 69C55.6084 69.536 55.7244 70.136 55.7244 70.8C55.7244 71.456 55.6124 72.06 55.3884 72.612C55.1644 73.164 54.8484 73.644 54.4404 74.052C54.0324 74.452 53.5444 74.764 52.9764 74.988C52.4164 75.204 51.8004 75.312 51.1284 75.312C50.4564 75.312 49.8404 75.204 49.2804 74.988C48.7204 74.764 48.2324 74.452 47.8164 74.052C47.4084 73.644 47.0924 73.164 46.8684 72.612C46.6444 72.06 46.5324 71.456 46.5324 70.8ZM58.5574 68.58V66.6H62.3134V68.58H58.5574ZM58.5574 71.844V70.008H62.1934V71.844H58.5574ZM56.9734 66.6H59.2054V75H56.9734V66.6ZM62.6021 68.676V66.6H69.6341V68.676H67.2821V75H64.9541V68.676H62.6021ZM78.7795 70.98L80.2555 66.6H83.0395L79.3075 75.516L76.5355 70.884L73.7755 75.516L70.0435 66.6H72.8275L74.3035 70.98L76.5355 66.18L78.7795 70.98ZM84.2072 73.644L84.2792 71.928H88.5872L88.6472 73.644H84.2072ZM86.4032 70.044L85.2992 72.564L85.4432 73.08L84.4712 75H81.8312L86.4032 66.036L90.9872 75H88.3472L87.3872 73.164L87.5192 72.564L86.4032 70.044ZM94.0932 71.292H96.4812L99.0012 75H96.2892L94.0932 71.292ZM91.8132 66.6H94.1412V75H91.8132V66.6ZM93.3012 68.568V66.6H95.1132C95.8812 66.6 96.5132 66.72 97.0092 66.96C97.5132 67.2 97.8852 67.532 98.1252 67.956C98.3732 68.372 98.4972 68.856 98.4972 69.408C98.4972 69.952 98.3732 70.44 98.1252 70.872C97.8852 71.296 97.5132 71.628 97.0092 71.868C96.5132 72.1 95.8812 72.216 95.1132 72.216H93.3012V70.452H94.9212C95.1692 70.452 95.3772 70.416 95.5452 70.344C95.7132 70.272 95.8412 70.164 95.9292 70.02C96.0252 69.876 96.0732 69.704 96.0732 69.504C96.0732 69.304 96.0252 69.136 95.9292 69C95.8412 68.856 95.7132 68.748 95.5452 68.676C95.3772 68.604 95.1692 68.568 94.9212 68.568H93.3012ZM101.471 75V73.116H105.707V75H101.471ZM101.471 68.484V66.6H105.707V68.484H101.471ZM101.471 71.544V69.72H105.467V71.544H101.471ZM99.8874 66.6H102.119V75H99.8874V66.6ZM112.019 71.928C112.187 72.224 112.375 72.48 112.583 72.696C112.791 72.904 113.019 73.064 113.267 73.176C113.515 73.288 113.771 73.344 114.035 73.344C114.291 73.344 114.503 73.288 114.671 73.176C114.839 73.056 114.923 72.884 114.923 72.66C114.923 72.5 114.875 72.368 114.779 72.264C114.683 72.152 114.515 72.04 114.275 71.928C114.043 71.816 113.715 71.68 113.291 71.52C113.083 71.44 112.851 71.336 112.595 71.208C112.339 71.072 112.091 70.9 111.851 70.692C111.619 70.484 111.423 70.228 111.263 69.924C111.111 69.62 111.035 69.26 111.035 68.844C111.035 68.316 111.175 67.872 111.455 67.512C111.735 67.144 112.107 66.864 112.571 66.672C113.035 66.48 113.551 66.384 114.119 66.384C114.711 66.384 115.223 66.48 115.655 66.672C116.087 66.856 116.443 67.092 116.723 67.38C117.003 67.66 117.219 67.944 117.371 68.232L115.619 69.204C115.499 69.004 115.359 68.84 115.199 68.712C115.047 68.576 114.883 68.472 114.707 68.4C114.531 68.328 114.351 68.292 114.167 68.292C113.935 68.292 113.751 68.34 113.615 68.436C113.479 68.532 113.411 68.66 113.411 68.82C113.411 69.004 113.487 69.16 113.639 69.288C113.799 69.408 114.015 69.524 114.287 69.636C114.567 69.74 114.887 69.856 115.247 69.984C115.559 70.096 115.843 70.232 116.099 70.392C116.363 70.544 116.591 70.728 116.783 70.944C116.975 71.152 117.123 71.392 117.227 71.664C117.331 71.936 117.383 72.24 117.383 72.576C117.383 73.024 117.291 73.42 117.107 73.764C116.931 74.108 116.687 74.396 116.375 74.628C116.071 74.852 115.723 75.02 115.331 75.132C114.939 75.252 114.539 75.312 114.131 75.312C113.555 75.312 113.019 75.212 112.523 75.012C112.035 74.82 111.611 74.556 111.251 74.22C110.891 73.876 110.619 73.496 110.435 73.08L112.019 71.928ZM117.856 68.676V66.6H124.888V68.676H122.536V75H120.208V68.676H117.856ZM125.714 66.6H128.042V72.048C128.042 72.432 128.142 72.744 128.342 72.984C128.542 73.216 128.842 73.332 129.242 73.332C129.65 73.332 129.954 73.216 130.154 72.984C130.354 72.744 130.454 72.432 130.454 72.048V66.6H132.782V72.24C132.782 72.808 132.69 73.292 132.506 73.692C132.322 74.092 132.066 74.42 131.738 74.676C131.41 74.924 131.034 75.108 130.61 75.228C130.186 75.348 129.73 75.408 129.242 75.408C128.762 75.408 128.306 75.348 127.874 75.228C127.45 75.108 127.074 74.924 126.746 74.676C126.426 74.42 126.174 74.092 125.99 73.692C125.806 73.292 125.714 72.808 125.714 72.24V66.6ZM134.446 66.6H136.858V75H134.446V66.6ZM137.59 75H136.03V72.96H137.494C137.774 72.96 138.046 72.932 138.31 72.876C138.582 72.812 138.826 72.704 139.042 72.552C139.258 72.392 139.43 72.172 139.558 71.892C139.694 71.604 139.762 71.24 139.762 70.8C139.762 70.36 139.694 70 139.558 69.72C139.43 69.432 139.258 69.212 139.042 69.06C138.826 68.9 138.582 68.792 138.31 68.736C138.046 68.672 137.774 68.64 137.494 68.64H136.03V66.6H137.59C138.542 66.6 139.358 66.772 140.038 67.116C140.726 67.452 141.254 67.932 141.622 68.556C141.998 69.18 142.186 69.928 142.186 70.8C142.186 71.664 141.998 72.412 141.622 73.044C141.254 73.668 140.726 74.152 140.038 74.496C139.358 74.832 138.542 75 137.59 75ZM143.434 66.6H145.81V75H143.434V66.6ZM149.516 70.8C149.516 71.248 149.604 71.648 149.78 72C149.956 72.344 150.204 72.616 150.524 72.816C150.844 73.008 151.22 73.104 151.652 73.104C152.092 73.104 152.468 73.008 152.78 72.816C153.1 72.616 153.348 72.344 153.524 72C153.7 71.648 153.788 71.248 153.788 70.8C153.788 70.344 153.704 69.944 153.536 69.6C153.368 69.256 153.124 68.988 152.804 68.796C152.492 68.596 152.108 68.496 151.652 68.496C151.22 68.496 150.844 68.596 150.524 68.796C150.204 68.988 149.956 69.256 149.78 69.6C149.604 69.944 149.516 70.344 149.516 70.8ZM147.056 70.8C147.056 70.136 147.172 69.536 147.404 69C147.644 68.456 147.972 67.992 148.388 67.608C148.804 67.216 149.288 66.916 149.84 66.708C150.4 66.492 151.004 66.384 151.652 66.384C152.316 66.384 152.924 66.492 153.476 66.708C154.036 66.916 154.524 67.216 154.94 67.608C155.356 67.992 155.676 68.456 155.9 69C156.132 69.536 156.248 70.136 156.248 70.8C156.248 71.456 156.136 72.06 155.912 72.612C155.688 73.164 155.372 73.644 154.964 74.052C154.556 74.452 154.068 74.764 153.5 74.988C152.94 75.204 152.324 75.312 151.652 75.312C150.98 75.312 150.364 75.204 149.804 74.988C149.244 74.764 148.756 74.452 148.34 74.052C147.932 73.644 147.616 73.164 147.392 72.612C147.168 72.06 147.056 71.456 147.056 70.8Z" fill="black"/>
</svg>
